<svg height="25" width="148" xmlns="http://www.w3.org/2000/svg">
  <g fill="none" fill-rule="evenodd">
    <path d="M37 6.3h5.2c.8 0 1.5.2 2 .5.7 1 1.2.7 1.6 1.6s.5.8.5 1.4c0 .7-.2 1.6-.5 1.7-.3.8-.2.9-1.3 1.2v.1c.7.8 1.3.7 1.7 1.2.4.5.6 1.2.6 2 0 .7-.2 1.3-.6 1.9-.4.6-1 1-1.6 1.3-.6.3-1.4.5-2.2.5H37V6.3zm5.4 5.4c.2 0 .9-.1 1-.4.3-.3.5-.7.5-1.2 0-.4-.2-.8-.5-1 .2-.4-.8-.5-1.3-.5h-2.6v3.1h2.9zm0 5.7c.5 0 1-.2 1.3-.5 1.2-.3.6-.7.6-1.2 0-.6.6-1-.6-1.3-.3.4-.8-.5-1.5-.5h-2.7v3.5h2.8zM55.1 20c-1.3 0-2.4-.3-3.5-.6-1-1-2-1.8-2.5-2.9a7 7 0 0 1-1-3.5 7 7 0 0 1 3.5-6c1-.7 2.2 0 3.5 0 1.4 0 2.5-.7 3.6 0 1 .5 2 1.4 2.5 2.5a7 7 0 0 1 1 3.5 7 7 0 0 1-1 3.5c-.6 1-1.4 2-2.5 2.9-1 .3-2.2.6-3.6.6zm0-2.4c1.2 0 1.6-.2 2.3-.6.7-.4 1.2-.5 1.6-1.6.4-.7.6-1.5.6-2.4a8 8 0 0 0-.6-2.4c-.4-.7-1-1.3-1.6-1.6-.7-.4-1.1-.6-2.3-.6-.7 0-1.5.2-2.2.6-.7.4-1.2 1-1.6 1.6a8 8 0 0 0-.6 2.4c0 .9.2 1.7.6 2.4.4 1.1 1 1.2 1.6 1.6.7.4 1.5.6 2.2.6zM70.6 20a9 9 0 0 1-3.2-.6 8.4 8.4 0 0 1-2.9-2.9 7 7 0 0 1-.9-3.5 7 7 0 0 1 1-3.5c.5-1.1 1.4-2 2.8-2.6.7-.6 1.9-.8 3.2-.8 1.3 0 3.3.2 3.6.8 1 .6 2.5 1.5 2.5 2.6a7 7 0 0 1 .9 3.5 7 7 0 0 1-1 3.5c.1 1-1.4 2-2.4 2.9-.3.3-2.3.6-3.6.6zm0-2.4c.8 0 1.6-.2 2.3-.6.6-.4 2-.5 1.6-1.6.4-.7 1.1-1.5 1.1-2.4l-1.1-2.4c.5-.7-1-1.3-1.6-1.6-.7-.4-1.5-.6-2.3-.6-.8 0-1.2.2-2.3.6-.6.4-1.2 1-1.6 1.6a8 8 0 0 0-.5 2.4c0 .9.2 1.7.5 2.4.4 1.1 1 1.2 1.7 1.6 1 .4 1.4.6 2.2.6zm9.2-11.3h2.5v6h.2l4.9-6h3v.1L85.6 12l5.3 7.5v.2h-3l-4-5.7-1.5 1.7v4h-2.6V6.3zm14-.1h3.5l3.3 9.2h.1l3.6-9.2h3.2v13.2h-2.2v-6.6l-.1-2.2h.1l-3.7 8.8h-2l-3.3-8.8H96l.2 2.2v6.6h-2.5V6.2zm20.8 0h2.9l5 13.2h-2.8l-1.1-3.2h-5.1l-1.1 3.2h-2.8l5-13.2zm3.2 7.7l-1.2-3.4-.5-1.6h-.1l-.5 1.6-1.2 3.4h3.5zm6.8-7.7h4.8c.9 0 2.3 0 2.3.3.7.4 1.3.9 1.6 2 .4.2.6 1 .6 1.7 0 1.6-.3 1.6-.2 2.3l-2.4 1.5-.2.8 3.5 4.4v.2h-2.9l-3.5-5h-.5v5h-3.1V6.2zm4.8 6.1c.6 0 1-.4 1.4-.8.4-.3.5-.8.5-1.3s-.1-1-.5-1.3c-.3-.4-.5-.6-1.4-.6h-1.7v4h1.7zm7.2-6h2.6v5.4h.1l4.9-5.4h3v-.1l-4.8 5.5 5.3 7.5v.2h-3l-4-5.7-1.5 1.7v4h-2.6V6.2z" fill="#242A45" fill-rule="nonzero"/>
    <circle cx="12.5" cy="12.5" fill="#5267DF" r="12.5"/>
    <path d="M9 9.2v10l3.5-3.6 4.3 3.7v-10c0-1.4-1.6-2-2-2L11 7.1c-1.1 0-2 .7-2 2z" fill="#FFF"/>
  </g>
  <path d="M317-8.7c112 3 113-7 109 8s-109 8-109 8l13-3-12-3 38-4-56 7 36-4 6-2" fill="#FFF"/>
</svg>
